<svg xmlns="http://www.w3.org/2000/svg" xmlns:xlink="http://www.w3.org/1999/xlink" viewBox="0 0 175.78 166.15"><defs><style>.cls-1{fill:url(#linear-gradient);}.cls-2{fill:url(#linear-gradient-2);}.cls-3{fill:url(#linear-gradient-3);}.cls-4{fill:url(#linear-gradient-4);}.cls-5{fill:url(#linear-gradient-5);}</style><linearGradient id="linear-gradient" x1="171.93" y1="175.73" x2="-122.85" y2="-144.67" gradientUnits="userSpaceOnUse"><stop offset="0" stop-color="#ef0a00"/><stop offset="0.05" stop-color="#ce0d04"/><stop offset="0.12" stop-color="#a41009"/><stop offset="0.2" stop-color="#7f120e"/><stop offset="0.29" stop-color="#5f1512"/><stop offset="0.38" stop-color="#461715"/><stop offset="0.48" stop-color="#321817"/><stop offset="0.59" stop-color="#241919"/><stop offset="0.74" stop-color="#1c1a1a"/><stop offset="1" stop-color="#1a1a1a"/></linearGradient><linearGradient id="linear-gradient-2" x1="234.5" y1="118.16" x2="-60.27" y2="-202.24" xlink:href="#linear-gradient"/><linearGradient id="linear-gradient-3" x1="149.84" y1="196.06" x2="-144.94" y2="-124.35" xlink:href="#linear-gradient"/><linearGradient id="linear-gradient-4" x1="158.86" y1="187.75" x2="-135.91" y2="-132.65" xlink:href="#linear-gradient"/><linearGradient id="linear-gradient-5" x1="129.08" y1="215.16" x2="-165.7" y2="-105.25" xlink:href="#linear-gradient"/></defs><title>Carbon Cloud</title><g id="Layer_2" data-name="Layer 2"><g id="Game_Overlay" data-name="Game Overlay"><g id="Event_Carbon" data-name="Event Carbon"><path class="cls-1" d="M166.1,76a33.06,33.06,0,0,0-43.58-39.13A44.62,44.62,0,0,0,34.62,47,41.76,41.76,0,1,0,57,127a37.36,37.36,0,0,0,56.91,2.41A37.42,37.42,0,0,0,166.1,76Z"/><circle class="cls-2" cx="132.44" cy="7.22" r="7.22"/><circle class="cls-3" cx="116.78" cy="160.13" r="6.02"/><circle class="cls-4" cx="20.47" cy="37.32" r="6.02"/><circle class="cls-5" cx="52.97" cy="132.44" r="12.04"/></g></g></g></svg>